<svg width="367" height="211" viewBox="0 0 367 211" fill="none" xmlns="http://www.w3.org/2000/svg">
<path d="M189.773 164.591H182.682C182.409 163.076 181.902 161.742 181.159 160.591C180.417 159.439 179.508 158.462 178.432 157.659C177.356 156.856 176.152 156.25 174.818 155.841C173.5 155.432 172.098 155.227 170.614 155.227C167.932 155.227 165.53 155.902 163.409 157.25C161.303 158.598 159.636 160.576 158.409 163.182C157.197 165.788 156.591 168.97 156.591 172.727C156.591 176.515 157.197 179.712 158.409 182.318C159.636 184.924 161.311 186.894 163.432 188.227C165.553 189.561 167.939 190.227 170.591 190.227C172.061 190.227 173.455 190.03 174.773 189.636C176.106 189.227 177.311 188.629 178.386 187.841C179.462 187.053 180.371 186.091 181.114 184.955C181.871 183.803 182.394 182.485 182.682 181L189.773 181.023C189.394 183.311 188.659 185.417 187.568 187.341C186.492 189.25 185.106 190.902 183.409 192.295C181.727 193.674 179.803 194.742 177.636 195.5C175.47 196.258 173.106 196.636 170.545 196.636C166.515 196.636 162.924 195.682 159.773 193.773C156.621 191.848 154.136 189.098 152.318 185.523C150.515 181.947 149.614 177.682 149.614 172.727C149.614 167.758 150.523 163.492 152.341 159.932C154.159 156.356 156.644 153.614 159.795 151.705C162.947 149.78 166.53 148.818 170.545 148.818C173.015 148.818 175.318 149.174 177.455 149.886C179.606 150.583 181.538 151.614 183.25 152.977C184.962 154.326 186.379 155.977 187.5 157.932C188.621 159.871 189.379 162.091 189.773 164.591ZM212.335 196.705C209.063 196.705 206.206 195.955 203.767 194.455C201.328 192.955 199.434 190.856 198.085 188.159C196.737 185.462 196.062 182.311 196.062 178.705C196.062 175.083 196.737 171.917 198.085 169.205C199.434 166.492 201.328 164.386 203.767 162.886C206.206 161.386 209.063 160.636 212.335 160.636C215.608 160.636 218.464 161.386 220.903 162.886C223.343 164.386 225.237 166.492 226.585 169.205C227.934 171.917 228.608 175.083 228.608 178.705C228.608 182.311 227.934 185.462 226.585 188.159C225.237 190.856 223.343 192.955 220.903 194.455C218.464 195.955 215.608 196.705 212.335 196.705ZM212.358 191C214.479 191 216.237 190.439 217.631 189.318C219.025 188.197 220.055 186.705 220.722 184.841C221.403 182.977 221.744 180.924 221.744 178.682C221.744 176.455 221.403 174.409 220.722 172.545C220.055 170.667 219.025 169.159 217.631 168.023C216.237 166.886 214.479 166.318 212.358 166.318C210.222 166.318 208.449 166.886 207.04 168.023C205.646 169.159 204.608 170.667 203.926 172.545C203.259 174.409 202.926 176.455 202.926 178.682C202.926 180.924 203.259 182.977 203.926 184.841C204.608 186.705 205.646 188.197 207.04 189.318C208.449 190.439 210.222 191 212.358 191ZM258.307 181.523V161.091H265.125V196H258.443V189.955H258.08C257.277 191.818 255.989 193.371 254.216 194.614C252.458 195.841 250.269 196.455 247.648 196.455C245.405 196.455 243.42 195.962 241.693 194.977C239.981 193.977 238.633 192.5 237.648 190.545C236.678 188.591 236.193 186.174 236.193 183.295V161.091H242.989V182.477C242.989 184.856 243.648 186.75 244.966 188.159C246.284 189.568 247.996 190.273 250.102 190.273C251.375 190.273 252.64 189.955 253.898 189.318C255.17 188.682 256.223 187.72 257.057 186.432C257.905 185.144 258.322 183.508 258.307 181.523ZM274.256 196V161.091H280.824V166.636H281.188C281.824 164.758 282.945 163.28 284.551 162.205C286.172 161.114 288.006 160.568 290.051 160.568C290.475 160.568 290.975 160.583 291.551 160.614C292.142 160.644 292.604 160.682 292.938 160.727V167.227C292.665 167.152 292.18 167.068 291.483 166.977C290.786 166.871 290.089 166.818 289.392 166.818C287.786 166.818 286.354 167.159 285.097 167.841C283.854 168.508 282.869 169.439 282.142 170.636C281.415 171.818 281.051 173.167 281.051 174.682V196H274.256ZM324.977 169.614L318.818 170.705C318.561 169.917 318.152 169.167 317.591 168.455C317.045 167.742 316.303 167.159 315.364 166.705C314.424 166.25 313.25 166.023 311.841 166.023C309.917 166.023 308.311 166.455 307.023 167.318C305.735 168.167 305.091 169.265 305.091 170.614C305.091 171.78 305.523 172.72 306.386 173.432C307.25 174.144 308.644 174.727 310.568 175.182L316.114 176.455C319.326 177.197 321.72 178.341 323.295 179.886C324.871 181.432 325.659 183.439 325.659 185.909C325.659 188 325.053 189.864 323.841 191.5C322.644 193.121 320.97 194.394 318.818 195.318C316.682 196.242 314.205 196.705 311.386 196.705C307.477 196.705 304.288 195.871 301.818 194.205C299.348 192.523 297.833 190.136 297.273 187.045L303.841 186.045C304.25 187.758 305.091 189.053 306.364 189.932C307.636 190.795 309.295 191.227 311.341 191.227C313.568 191.227 315.348 190.765 316.682 189.841C318.015 188.902 318.682 187.758 318.682 186.409C318.682 185.318 318.273 184.402 317.455 183.659C316.652 182.917 315.417 182.356 313.75 181.977L307.841 180.682C304.583 179.939 302.174 178.758 300.614 177.136C299.068 175.515 298.295 173.462 298.295 170.977C298.295 168.917 298.871 167.114 300.023 165.568C301.174 164.023 302.765 162.818 304.795 161.955C306.826 161.076 309.152 160.636 311.773 160.636C315.545 160.636 318.515 161.455 320.682 163.091C322.848 164.712 324.28 166.886 324.977 169.614ZM348.176 196.705C344.737 196.705 341.775 195.97 339.29 194.5C336.82 193.015 334.911 190.932 333.562 188.25C332.229 185.553 331.562 182.394 331.562 178.773C331.562 175.197 332.229 172.045 333.562 169.318C334.911 166.591 336.79 164.462 339.199 162.932C341.623 161.402 344.456 160.636 347.699 160.636C349.669 160.636 351.578 160.962 353.426 161.614C355.275 162.265 356.934 163.288 358.403 164.682C359.873 166.076 361.032 167.886 361.881 170.114C362.729 172.326 363.153 175.015 363.153 178.182V180.591H335.403V175.5H356.494C356.494 173.712 356.131 172.129 355.403 170.75C354.676 169.356 353.653 168.258 352.335 167.455C351.032 166.652 349.502 166.25 347.744 166.25C345.835 166.25 344.169 166.72 342.744 167.659C341.335 168.583 340.244 169.795 339.472 171.295C338.714 172.78 338.335 174.394 338.335 176.136V180.114C338.335 182.447 338.744 184.432 339.562 186.068C340.396 187.705 341.555 188.955 343.04 189.818C344.525 190.667 346.259 191.091 348.244 191.091C349.532 191.091 350.706 190.909 351.767 190.545C352.828 190.167 353.744 189.606 354.517 188.864C355.29 188.121 355.881 187.205 356.29 186.114L362.722 187.273C362.206 189.167 361.282 190.826 359.949 192.25C358.631 193.659 356.972 194.758 354.972 195.545C352.987 196.318 350.722 196.705 348.176 196.705Z" fill="#2D2E4F" fill-opacity="0.35"/>
<path d="M23.2045 149.455H30.2045V182.455C30.2045 185.439 29.6136 187.992 28.4318 190.114C27.2652 192.235 25.6212 193.856 23.5 194.977C21.3788 196.083 18.8939 196.636 16.0455 196.636C13.4242 196.636 11.0682 196.159 8.97727 195.205C6.90152 194.25 5.25758 192.864 4.04545 191.045C2.84848 189.212 2.25 186.985 2.25 184.364H9.22727C9.22727 185.652 9.52273 186.765 10.1136 187.705C10.7197 188.644 11.5455 189.379 12.5909 189.909C13.6515 190.424 14.8636 190.682 16.2273 190.682C17.7121 190.682 18.9697 190.371 20 189.75C21.0455 189.114 21.8409 188.182 22.3864 186.955C22.9318 185.727 23.2045 184.227 23.2045 182.455V149.455ZM54.5852 196.705C51.3125 196.705 48.4564 195.955 46.017 194.455C43.5777 192.955 41.6837 190.856 40.3352 188.159C38.9867 185.462 38.3125 182.311 38.3125 178.705C38.3125 175.083 38.9867 171.917 40.3352 169.205C41.6837 166.492 43.5777 164.386 46.017 162.886C48.4564 161.386 51.3125 160.636 54.5852 160.636C57.858 160.636 60.714 161.386 63.1534 162.886C65.5928 164.386 67.4867 166.492 68.8352 169.205C70.1837 171.917 70.858 175.083 70.858 178.705C70.858 182.311 70.1837 185.462 68.8352 188.159C67.4867 190.856 65.5928 192.955 63.1534 194.455C60.714 195.955 57.858 196.705 54.5852 196.705ZM54.608 191C56.7292 191 58.4867 190.439 59.8807 189.318C61.2746 188.197 62.3049 186.705 62.9716 184.841C63.6534 182.977 63.9943 180.924 63.9943 178.682C63.9943 176.455 63.6534 174.409 62.9716 172.545C62.3049 170.667 61.2746 169.159 59.8807 168.023C58.4867 166.886 56.7292 166.318 54.608 166.318C52.4716 166.318 50.6989 166.886 49.2898 168.023C47.8958 169.159 46.858 170.667 46.1761 172.545C45.5095 174.409 45.1761 176.455 45.1761 178.682C45.1761 180.924 45.5095 182.977 46.1761 184.841C46.858 186.705 47.8958 188.197 49.2898 189.318C50.6989 190.439 52.4716 191 54.608 191ZM78.4432 196V161.091H85.2386V196H78.4432ZM81.875 155.705C80.6932 155.705 79.678 155.311 78.8295 154.523C77.9962 153.72 77.5795 152.765 77.5795 151.659C77.5795 150.538 77.9962 149.583 78.8295 148.795C79.678 147.992 80.6932 147.591 81.875 147.591C83.0568 147.591 84.0644 147.992 84.8977 148.795C85.7462 149.583 86.1705 150.538 86.1705 151.659C86.1705 152.765 85.7462 153.72 84.8977 154.523C84.0644 155.311 83.0568 155.705 81.875 155.705ZM101.176 175.273V196H94.3807V161.091H100.903V166.773H101.335C102.138 164.924 103.396 163.439 105.108 162.318C106.835 161.197 109.009 160.636 111.631 160.636C114.009 160.636 116.093 161.136 117.881 162.136C119.669 163.121 121.055 164.591 122.04 166.545C123.025 168.5 123.517 170.917 123.517 173.795V196H116.722V174.614C116.722 172.083 116.063 170.106 114.744 168.682C113.426 167.242 111.616 166.523 109.312 166.523C107.737 166.523 106.335 166.864 105.108 167.545C103.896 168.227 102.934 169.227 102.222 170.545C101.525 171.848 101.176 173.424 101.176 175.273Z" fill="#2D2E4F" fill-opacity="0.35"/>
<path d="M154.25 90.9205V119.625H151.966V90.9205H154.25ZM162.477 90.9205V119.625H160.192V90.9205H162.477Z" fill="#2D2E4F" fill-opacity="0.35"/>
<path d="M97.7727 30.5909H90.6818C90.4091 29.0758 89.9015 27.7424 89.1591 26.5909C88.4167 25.4394 87.5076 24.4621 86.4318 23.6591C85.3561 22.8561 84.1515 22.25 82.8182 21.8409C81.5 21.4318 80.0985 21.2273 78.6136 21.2273C75.9318 21.2273 73.5303 21.9015 71.4091 23.25C69.303 24.5985 67.6364 26.5758 66.4091 29.1818C65.197 31.7879 64.5909 34.9697 64.5909 38.7273C64.5909 42.5152 65.197 45.7121 66.4091 48.3182C67.6364 50.9242 69.3106 52.8939 71.4318 54.2273C73.553 55.5606 75.9394 56.2273 78.5909 56.2273C80.0606 56.2273 81.4545 56.0303 82.7727 55.6364C84.1061 55.2273 85.3106 54.6288 86.3864 53.8409C87.4621 53.053 88.3712 52.0909 89.1136 50.9545C89.8712 49.803 90.3939 48.4848 90.6818 47L97.7727 47.0227C97.3939 49.3106 96.6591 51.4167 95.5682 53.3409C94.4924 55.25 93.1061 56.9015 91.4091 58.2955C89.7273 59.6742 87.803 60.7424 85.6364 61.5C83.4697 62.2576 81.1061 62.6364 78.5455 62.6364C74.5152 62.6364 70.9242 61.6818 67.7727 59.7727C64.6212 57.8485 62.1364 55.0985 60.3182 51.5227C58.5152 47.947 57.6136 43.6818 57.6136 38.7273C57.6136 33.7576 58.5227 29.4924 60.3409 25.9318C62.1591 22.3561 64.6439 19.6136 67.7955 17.7045C70.947 15.7803 74.5303 14.8182 78.5455 14.8182C81.0152 14.8182 83.3182 15.1742 85.4545 15.8864C87.6061 16.5833 89.5379 17.6136 91.25 18.9773C92.9621 20.3258 94.3788 21.9773 95.5 23.9318C96.6212 25.8712 97.3788 28.0909 97.7727 30.5909ZM105.631 62V27.0909H112.199V32.6364H112.562C113.199 30.7576 114.32 29.2803 115.926 28.2045C117.547 27.1136 119.381 26.5682 121.426 26.5682C121.85 26.5682 122.35 26.5833 122.926 26.6136C123.517 26.6439 123.979 26.6818 124.312 26.7273V33.2273C124.04 33.1515 123.555 33.0682 122.858 32.9773C122.161 32.8712 121.464 32.8182 120.767 32.8182C119.161 32.8182 117.729 33.1591 116.472 33.8409C115.229 34.5076 114.244 35.4394 113.517 36.6364C112.79 37.8182 112.426 39.1667 112.426 40.6818V62H105.631ZM143.989 62.7045C140.549 62.7045 137.587 61.9697 135.102 60.5C132.633 59.0152 130.723 56.9318 129.375 54.25C128.042 51.553 127.375 48.3939 127.375 44.7727C127.375 41.197 128.042 38.0455 129.375 35.3182C130.723 32.5909 132.602 30.4621 135.011 28.9318C137.436 27.4015 140.269 26.6364 143.511 26.6364C145.481 26.6364 147.39 26.9621 149.239 27.6136C151.087 28.2652 152.746 29.2879 154.216 30.6818C155.686 32.0758 156.845 33.8864 157.693 36.1136C158.542 38.3258 158.966 41.0152 158.966 44.1818V46.5909H131.216V41.5H152.307C152.307 39.7121 151.943 38.1288 151.216 36.75C150.489 35.3561 149.466 34.2576 148.148 33.4545C146.845 32.6515 145.314 32.25 143.557 32.25C141.648 32.25 139.981 32.7197 138.557 33.6591C137.148 34.5833 136.057 35.7955 135.284 37.2955C134.527 38.7803 134.148 40.3939 134.148 42.1364V46.1136C134.148 48.447 134.557 50.4318 135.375 52.0682C136.208 53.7045 137.367 54.9545 138.852 55.8182C140.337 56.6667 142.072 57.0909 144.057 57.0909C145.345 57.0909 146.519 56.9091 147.58 56.5455C148.64 56.1667 149.557 55.6061 150.33 54.8636C151.102 54.1212 151.693 53.2045 152.102 52.1136L158.534 53.2727C158.019 55.1667 157.095 56.8258 155.761 58.25C154.443 59.6591 152.784 60.7576 150.784 61.5455C148.799 62.3182 146.534 62.7045 143.989 62.7045ZM176.665 62.7727C174.453 62.7727 172.453 62.3636 170.665 61.5455C168.877 60.7121 167.46 59.5076 166.415 57.9318C165.384 56.3561 164.869 54.4242 164.869 52.1364C164.869 50.1667 165.248 48.5455 166.006 47.2727C166.763 46 167.786 44.9924 169.074 44.25C170.362 43.5076 171.801 42.947 173.392 42.5682C174.983 42.1894 176.604 41.9015 178.256 41.7045C180.347 41.4621 182.044 41.2652 183.347 41.1136C184.65 40.947 185.597 40.6818 186.188 40.3182C186.778 39.9545 187.074 39.3636 187.074 38.5455V38.3864C187.074 36.4015 186.513 34.8636 185.392 33.7727C184.286 32.6818 182.634 32.1364 180.438 32.1364C178.15 32.1364 176.347 32.6439 175.028 33.6591C173.725 34.6591 172.824 35.7727 172.324 37L165.938 35.5455C166.695 33.4242 167.801 31.7121 169.256 30.4091C170.725 29.0909 172.415 28.1364 174.324 27.5455C176.233 26.9394 178.241 26.6364 180.347 26.6364C181.741 26.6364 183.218 26.803 184.778 27.1364C186.354 27.4545 187.824 28.0455 189.188 28.9091C190.566 29.7727 191.695 31.0076 192.574 32.6136C193.453 34.2045 193.892 36.2727 193.892 38.8182V62H187.256V57.2273H186.983C186.544 58.1061 185.884 58.9697 185.006 59.8182C184.127 60.6667 182.998 61.3712 181.619 61.9318C180.241 62.4924 178.589 62.7727 176.665 62.7727ZM178.142 57.3182C180.021 57.3182 181.627 56.947 182.96 56.2045C184.309 55.4621 185.331 54.4924 186.028 53.2955C186.741 52.0833 187.097 50.7879 187.097 49.4091V44.9091C186.854 45.1515 186.384 45.3788 185.688 45.5909C185.006 45.7879 184.225 45.9621 183.347 46.1136C182.468 46.25 181.612 46.3788 180.778 46.5C179.945 46.6061 179.248 46.697 178.688 46.7727C177.369 46.9394 176.165 47.2197 175.074 47.6136C173.998 48.0076 173.134 48.5758 172.483 49.3182C171.847 50.0455 171.528 51.0152 171.528 52.2273C171.528 53.9091 172.15 55.1818 173.392 56.0455C174.634 56.8939 176.218 57.3182 178.142 57.3182ZM219.239 27.0909V32.5455H200.17V27.0909H219.239ZM205.284 18.7273H212.08V51.75C212.08 53.0682 212.277 54.0606 212.67 54.7273C213.064 55.3788 213.572 55.8258 214.193 56.0682C214.83 56.2955 215.519 56.4091 216.261 56.4091C216.807 56.4091 217.284 56.3712 217.693 56.2955C218.102 56.2197 218.42 56.1591 218.648 56.1136L219.875 61.7273C219.481 61.8788 218.92 62.0303 218.193 62.1818C217.466 62.3485 216.557 62.4394 215.466 62.4545C213.678 62.4848 212.011 62.1667 210.466 61.5C208.92 60.8333 207.67 59.803 206.716 58.4091C205.761 57.0152 205.284 55.2652 205.284 53.1591V18.7273ZM241.426 62.7045C237.987 62.7045 235.025 61.9697 232.54 60.5C230.07 59.0152 228.161 56.9318 226.812 54.25C225.479 51.553 224.812 48.3939 224.812 44.7727C224.812 41.197 225.479 38.0455 226.812 35.3182C228.161 32.5909 230.04 30.4621 232.449 28.9318C234.873 27.4015 237.706 26.6364 240.949 26.6364C242.919 26.6364 244.828 26.9621 246.676 27.6136C248.525 28.2652 250.184 29.2879 251.653 30.6818C253.123 32.0758 254.282 33.8864 255.131 36.1136C255.979 38.3258 256.403 41.0152 256.403 44.1818V46.5909H228.653V41.5H249.744C249.744 39.7121 249.381 38.1288 248.653 36.75C247.926 35.3561 246.903 34.2576 245.585 33.4545C244.282 32.6515 242.752 32.25 240.994 32.25C239.085 32.25 237.419 32.7197 235.994 33.6591C234.585 34.5833 233.494 35.7955 232.722 37.2955C231.964 38.7803 231.585 40.3939 231.585 42.1364V46.1136C231.585 48.447 231.994 50.4318 232.812 52.0682C233.646 53.7045 234.805 54.9545 236.29 55.8182C237.775 56.6667 239.509 57.0909 241.494 57.0909C242.782 57.0909 243.956 56.9091 245.017 56.5455C246.078 56.1667 246.994 55.6061 247.767 54.8636C248.54 54.1212 249.131 53.2045 249.54 52.1136L255.972 53.2727C255.456 55.1667 254.532 56.8258 253.199 58.25C251.881 59.6591 250.222 60.7576 248.222 61.5455C246.237 62.3182 243.972 62.7045 241.426 62.7045Z" fill="#2D2E4F" fill-opacity="0.35"/>
</svg>
