<svg width="368" height="77" viewBox="0 0 368 77" fill="none" xmlns="http://www.w3.org/2000/svg">
<path d="M190.273 30.5909H183.182C182.909 29.0758 182.402 27.7424 181.659 26.5909C180.917 25.4394 180.008 24.4621 178.932 23.6591C177.856 22.8561 176.652 22.25 175.318 21.8409C174 21.4318 172.598 21.2273 171.114 21.2273C168.432 21.2273 166.03 21.9015 163.909 23.25C161.803 24.5985 160.136 26.5758 158.909 29.1818C157.697 31.7879 157.091 34.9697 157.091 38.7273C157.091 42.5152 157.697 45.7121 158.909 48.3182C160.136 50.9242 161.811 52.8939 163.932 54.2273C166.053 55.5606 168.439 56.2273 171.091 56.2273C172.561 56.2273 173.955 56.0303 175.273 55.6364C176.606 55.2273 177.811 54.6288 178.886 53.8409C179.962 53.053 180.871 52.0909 181.614 50.9545C182.371 49.803 182.894 48.4848 183.182 47L190.273 47.0227C189.894 49.3106 189.159 51.4167 188.068 53.3409C186.992 55.25 185.606 56.9015 183.909 58.2955C182.227 59.6742 180.303 60.7424 178.136 61.5C175.97 62.2576 173.606 62.6364 171.045 62.6364C167.015 62.6364 163.424 61.6818 160.273 59.7727C157.121 57.8485 154.636 55.0985 152.818 51.5227C151.015 47.947 150.114 43.6818 150.114 38.7273C150.114 33.7576 151.023 29.4924 152.841 25.9318C154.659 22.3561 157.144 19.6136 160.295 17.7045C163.447 15.7803 167.03 14.8182 171.045 14.8182C173.515 14.8182 175.818 15.1742 177.955 15.8864C180.106 16.5833 182.038 17.6136 183.75 18.9773C185.462 20.3258 186.879 21.9773 188 23.9318C189.121 25.8712 189.879 28.0909 190.273 30.5909ZM212.835 62.7045C209.563 62.7045 206.706 61.9545 204.267 60.4545C201.828 58.9545 199.934 56.8561 198.585 54.1591C197.237 51.4621 196.562 48.3106 196.562 44.7045C196.562 41.0833 197.237 37.9167 198.585 35.2045C199.934 32.4924 201.828 30.3864 204.267 28.8864C206.706 27.3864 209.563 26.6364 212.835 26.6364C216.108 26.6364 218.964 27.3864 221.403 28.8864C223.843 30.3864 225.737 32.4924 227.085 35.2045C228.434 37.9167 229.108 41.0833 229.108 44.7045C229.108 48.3106 228.434 51.4621 227.085 54.1591C225.737 56.8561 223.843 58.9545 221.403 60.4545C218.964 61.9545 216.108 62.7045 212.835 62.7045ZM212.858 57C214.979 57 216.737 56.4394 218.131 55.3182C219.525 54.197 220.555 52.7045 221.222 50.8409C221.903 48.9773 222.244 46.9242 222.244 44.6818C222.244 42.4545 221.903 40.4091 221.222 38.5455C220.555 36.6667 219.525 35.1591 218.131 34.0227C216.737 32.8864 214.979 32.3182 212.858 32.3182C210.722 32.3182 208.949 32.8864 207.54 34.0227C206.146 35.1591 205.108 36.6667 204.426 38.5455C203.759 40.4091 203.426 42.4545 203.426 44.6818C203.426 46.9242 203.759 48.9773 204.426 50.8409C205.108 52.7045 206.146 54.197 207.54 55.3182C208.949 56.4394 210.722 57 212.858 57ZM258.807 47.5227V27.0909H265.625V62H258.943V55.9545H258.58C257.777 57.8182 256.489 59.3712 254.716 60.6136C252.958 61.8409 250.769 62.4545 248.148 62.4545C245.905 62.4545 243.92 61.9621 242.193 60.9773C240.481 59.9773 239.133 58.5 238.148 56.5455C237.178 54.5909 236.693 52.1742 236.693 49.2955V27.0909H243.489V48.4773C243.489 50.8561 244.148 52.75 245.466 54.1591C246.784 55.5682 248.496 56.2727 250.602 56.2727C251.875 56.2727 253.14 55.9545 254.398 55.3182C255.67 54.6818 256.723 53.7197 257.557 52.4318C258.405 51.1439 258.822 49.5076 258.807 47.5227ZM274.756 62V27.0909H281.324V32.6364H281.688C282.324 30.7576 283.445 29.2803 285.051 28.2045C286.672 27.1136 288.506 26.5682 290.551 26.5682C290.975 26.5682 291.475 26.5833 292.051 26.6136C292.642 26.6439 293.104 26.6818 293.438 26.7273V33.2273C293.165 33.1515 292.68 33.0682 291.983 32.9773C291.286 32.8712 290.589 32.8182 289.892 32.8182C288.286 32.8182 286.854 33.1591 285.597 33.8409C284.354 34.5076 283.369 35.4394 282.642 36.6364C281.915 37.8182 281.551 39.1667 281.551 40.6818V62H274.756ZM325.477 35.6136L319.318 36.7045C319.061 35.9167 318.652 35.1667 318.091 34.4545C317.545 33.7424 316.803 33.1591 315.864 32.7045C314.924 32.25 313.75 32.0227 312.341 32.0227C310.417 32.0227 308.811 32.4545 307.523 33.3182C306.235 34.1667 305.591 35.2652 305.591 36.6136C305.591 37.7803 306.023 38.7197 306.886 39.4318C307.75 40.1439 309.144 40.7273 311.068 41.1818L316.614 42.4545C319.826 43.197 322.22 44.3409 323.795 45.8864C325.371 47.4318 326.159 49.4394 326.159 51.9091C326.159 54 325.553 55.8636 324.341 57.5C323.144 59.1212 321.47 60.3939 319.318 61.3182C317.182 62.2424 314.705 62.7045 311.886 62.7045C307.977 62.7045 304.788 61.8712 302.318 60.2045C299.848 58.5227 298.333 56.1364 297.773 53.0455L304.341 52.0455C304.75 53.7576 305.591 55.053 306.864 55.9318C308.136 56.7955 309.795 57.2273 311.841 57.2273C314.068 57.2273 315.848 56.7652 317.182 55.8409C318.515 54.9015 319.182 53.7576 319.182 52.4091C319.182 51.3182 318.773 50.4015 317.955 49.6591C317.152 48.9167 315.917 48.3561 314.25 47.9773L308.341 46.6818C305.083 45.9394 302.674 44.7576 301.114 43.1364C299.568 41.5152 298.795 39.4621 298.795 36.9773C298.795 34.9167 299.371 33.1136 300.523 31.5682C301.674 30.0227 303.265 28.8182 305.295 27.9545C307.326 27.0758 309.652 26.6364 312.273 26.6364C316.045 26.6364 319.015 27.4545 321.182 29.0909C323.348 30.7121 324.78 32.8864 325.477 35.6136ZM348.676 62.7045C345.237 62.7045 342.275 61.9697 339.79 60.5C337.32 59.0152 335.411 56.9318 334.062 54.25C332.729 51.553 332.062 48.3939 332.062 44.7727C332.062 41.197 332.729 38.0455 334.062 35.3182C335.411 32.5909 337.29 30.4621 339.699 28.9318C342.123 27.4015 344.956 26.6364 348.199 26.6364C350.169 26.6364 352.078 26.9621 353.926 27.6136C355.775 28.2652 357.434 29.2879 358.903 30.6818C360.373 32.0758 361.532 33.8864 362.381 36.1136C363.229 38.3258 363.653 41.0152 363.653 44.1818V46.5909H335.903V41.5H356.994C356.994 39.7121 356.631 38.1288 355.903 36.75C355.176 35.3561 354.153 34.2576 352.835 33.4545C351.532 32.6515 350.002 32.25 348.244 32.25C346.335 32.25 344.669 32.7197 343.244 33.6591C341.835 34.5833 340.744 35.7955 339.972 37.2955C339.214 38.7803 338.835 40.3939 338.835 42.1364V46.1136C338.835 48.447 339.244 50.4318 340.062 52.0682C340.896 53.7045 342.055 54.9545 343.54 55.8182C345.025 56.6667 346.759 57.0909 348.744 57.0909C350.032 57.0909 351.206 56.9091 352.267 56.5455C353.328 56.1667 354.244 55.6061 355.017 54.8636C355.79 54.1212 356.381 53.2045 356.79 52.1136L363.222 53.2727C362.706 55.1667 361.782 56.8258 360.449 58.25C359.131 59.6591 357.472 60.7576 355.472 61.5455C353.487 62.3182 351.222 62.7045 348.676 62.7045Z" fill="#2D2E4F" fill-opacity="0.35"/>
<path d="M23.7045 15.4545H30.7045V48.4545C30.7045 51.4394 30.1136 53.9924 28.9318 56.1136C27.7652 58.2348 26.1212 59.8561 24 60.9773C21.8788 62.0833 19.3939 62.6364 16.5455 62.6364C13.9242 62.6364 11.5682 62.1591 9.47727 61.2045C7.40152 60.25 5.75758 58.8636 4.54545 57.0455C3.34848 55.2121 2.75 52.9848 2.75 50.3636H9.72727C9.72727 51.6515 10.0227 52.7652 10.6136 53.7045C11.2197 54.6439 12.0455 55.3788 13.0909 55.9091C14.1515 56.4242 15.3636 56.6818 16.7273 56.6818C18.2121 56.6818 19.4697 56.3712 20.5 55.75C21.5455 55.1136 22.3409 54.1818 22.8864 52.9545C23.4318 51.7273 23.7045 50.2273 23.7045 48.4545V15.4545ZM55.0852 62.7045C51.8125 62.7045 48.9564 61.9545 46.517 60.4545C44.0777 58.9545 42.1837 56.8561 40.8352 54.1591C39.4867 51.4621 38.8125 48.3106 38.8125 44.7045C38.8125 41.0833 39.4867 37.9167 40.8352 35.2045C42.1837 32.4924 44.0777 30.3864 46.517 28.8864C48.9564 27.3864 51.8125 26.6364 55.0852 26.6364C58.358 26.6364 61.214 27.3864 63.6534 28.8864C66.0928 30.3864 67.9867 32.4924 69.3352 35.2045C70.6837 37.9167 71.358 41.0833 71.358 44.7045C71.358 48.3106 70.6837 51.4621 69.3352 54.1591C67.9867 56.8561 66.0928 58.9545 63.6534 60.4545C61.214 61.9545 58.358 62.7045 55.0852 62.7045ZM55.108 57C57.2292 57 58.9867 56.4394 60.3807 55.3182C61.7746 54.197 62.8049 52.7045 63.4716 50.8409C64.1534 48.9773 64.4943 46.9242 64.4943 44.6818C64.4943 42.4545 64.1534 40.4091 63.4716 38.5455C62.8049 36.6667 61.7746 35.1591 60.3807 34.0227C58.9867 32.8864 57.2292 32.3182 55.108 32.3182C52.9716 32.3182 51.1989 32.8864 49.7898 34.0227C48.3958 35.1591 47.358 36.6667 46.6761 38.5455C46.0095 40.4091 45.6761 42.4545 45.6761 44.6818C45.6761 46.9242 46.0095 48.9773 46.6761 50.8409C47.358 52.7045 48.3958 54.197 49.7898 55.3182C51.1989 56.4394 52.9716 57 55.108 57ZM78.9432 62V27.0909H85.7386V62H78.9432ZM82.375 21.7045C81.1932 21.7045 80.178 21.3106 79.3295 20.5227C78.4962 19.7197 78.0795 18.7651 78.0795 17.6591C78.0795 16.5379 78.4962 15.5833 79.3295 14.7955C80.178 13.9924 81.1932 13.5909 82.375 13.5909C83.5568 13.5909 84.5644 13.9924 85.3977 14.7955C86.2462 15.5833 86.6705 16.5379 86.6705 17.6591C86.6705 18.7651 86.2462 19.7197 85.3977 20.5227C84.5644 21.3106 83.5568 21.7045 82.375 21.7045ZM101.676 41.2727V62H94.8807V27.0909H101.403V32.7727H101.835C102.638 30.9242 103.896 29.4394 105.608 28.3182C107.335 27.197 109.509 26.6364 112.131 26.6364C114.509 26.6364 116.593 27.1364 118.381 28.1364C120.169 29.1212 121.555 30.5909 122.54 32.5455C123.525 34.5 124.017 36.9167 124.017 39.7955V62H117.222V40.6136C117.222 38.0833 116.563 36.1061 115.244 34.6818C113.926 33.2424 112.116 32.5227 109.812 32.5227C108.237 32.5227 106.835 32.8636 105.608 33.5455C104.396 34.2273 103.434 35.2273 102.722 36.5455C102.025 37.8485 101.676 39.4242 101.676 41.2727Z" fill="#2D2E4F" fill-opacity="0.35"/>
</svg>
